<svg width="22" height="22" viewBox="0 0 22 22" fill="none" xmlns="http://www.w3.org/2000/svg">
<path d="M20.2234 19.7234V14.4745H20.5V20.5H14.4745V20.2234H19.7234H20.2234V19.7234Z" fill="white" stroke="white"/>
<path d="M2.2766 20.2234H7.52553V20.5H1.5V14.4745H1.7766V19.7234V20.2234H2.2766Z" fill="white" stroke="white"/>
<path d="M19.7234 1.7766H14.4745V1.5H20.5V7.52553H20.2234V2.2766V1.7766H19.7234Z" fill="white" stroke="white"/>
<path d="M1.7766 2.2766V7.52553H1.5V1.5H7.52553V1.7766H2.2766H1.7766V2.2766Z" fill="white" stroke="white"/>
<path fill-rule="evenodd" clip-rule="evenodd" d="M6.02944 7.0322C7.40202 5.65593 9.62742 5.65593 11 7.0322C12.3726 5.65593 14.598 5.65593 15.9706 7.0322C17.3431 8.40847 17.3431 10.6398 15.9706 12.0161L12.1586 15.8383C11.5192 16.4794 10.4808 16.4794 9.84137 15.8383L6.02944 12.0161C4.65685 10.6398 4.65685 8.40847 6.02944 7.0322Z" stroke="white"/>
</svg>
